<svg width="76" height="102" viewBox="0 0 76 102" fill="none" xmlns="http://www.w3.org/2000/svg">
<path fill-rule="evenodd" clip-rule="evenodd" d="M45.645 4.14662C45.459 4.21062 45.372 4.76262 45.372 5.86862V7.49562L48.973 7.36862L48.921 5.95162C48.848 3.94662 48.864 3.96562 47.285 4.01262C46.533 4.03462 45.795 4.09562 45.645 4.14662ZM15.166 23.6437C15.102 23.8107 15.079 24.5767 15.115 25.3437L15.181 26.7397H18.672V23.4657L16.978 23.4027C15.684 23.3537 15.256 23.4107 15.166 23.6437ZM34.151 15.6787L30.567 15.8057L30.442 19.6067L26.623 19.7327V36.0657L22.804 36.1917L22.586 40.1197L21.063 40.1856C18.348 40.3027 18.549 40.6396 18.549 35.9496V31.8977L15.166 32.0517L14.948 40.1197L13.148 40.1827C12.157 40.2177 11.344 40.3167 11.339 40.4017C11.335 40.4867 11.294 44.2387 11.247 48.7397C11.201 53.2407 11.156 56.9967 11.146 57.0867C11.137 57.1767 10.294 57.2497 9.274 57.2497H7.41901V72.3077H11.111L11.238 75.9077L14.839 76.0347V57.2497H18.549V53.1036H22.476V49.3937H26.186V45.2477H30.114V41.0367C30.114 36.0967 30.02 36.3007 32.301 36.3007H33.964L34.015 34.2966C34.078 31.8356 33.926 32.0357 35.79 31.9717C38.172 31.8897 38.091 31.8067 38.01 34.2246L37.94 36.3007H41.898V40.4467H45.608V44.9947L46.258 45.1377C46.616 45.2167 47.377 45.2647 47.95 45.2447C48.522 45.2257 49.113 45.2176 49.263 45.2286C49.461 45.2426 49.536 45.8187 49.536 47.3207V49.3937H53.246V53.1036H57.157L57.283 57.1407L60.774 57.1657L60.888 76.0177H64.357L64.484 72.4167L68.085 72.2897V68.0777C68.085 65.7617 68.149 62.3816 68.228 60.5667L68.37 57.2677L64.484 57.1407V48.7397C64.484 43.3907 64.405 40.2797 64.266 40.1777C64.146 40.0897 63.287 40.0157 62.356 40.0137L60.665 40.0107V35.9867C60.665 31.4077 60.774 31.6377 58.706 31.8417L57.183 31.9916L57.065 40.1197H53.137L53.018 31.9366H49.318V30.6577C49.318 29.9547 49.256 28.9267 49.18 28.3747L49.042 27.3707L45.499 27.2447L45.372 23.6437H41.69L41.571 15.8967L37.861 15.6787L37.742 7.49566H34.27L34.151 15.6787ZM56.948 27.3707H60.665L60.548 16.3507L56.948 16.2237V27.3707ZM34.26 53.3217L33.224 53.3676C32.654 53.3927 31.795 53.4247 31.314 53.4387L30.442 53.4636L30.317 57.6866H26.64L26.514 61.5057L22.804 61.7237L22.689 75.9996L26.514 76.1267L26.639 80.3817H49.318V76.0177H53.033L52.918 61.7237L49.265 61.5057L49.209 57.7957L45.499 57.5777L45.374 53.5577L41.789 53.4317L41.571 49.7217L39.877 49.7077C37.774 49.6907 37.784 49.7027 37.707 47.3237L37.643 45.3657L34.262 45.3567L34.26 53.3217ZM16.371 76.1797C14.943 76.2777 14.846 76.3997 14.845 78.0907C14.844 80.3817 14.844 80.3817 16.828 80.3817H18.549V78.1997C18.549 76.0697 18.537 76.0177 18.058 76.0577C17.787 76.0797 17.029 76.1347 16.371 76.1797ZM58.101 76.1767L57.174 76.2607V80.3817H60.665V78.3316C60.665 76.1477 60.574 75.9687 59.502 76.0556C59.242 76.0767 58.611 76.1307 58.101 76.1767ZM7.31 86.1647L0 86.2837V93.4747H10.911V89.7646H14.839V86.0556H22.476V82.1277H7.436L7.31 86.1647ZM53.246 86.0387L57.065 86.1647L57.191 89.7646H64.593V93.4747H75.515L75.395 86.3827L68.194 86.1647L68.068 82.1277H53.246V86.0387ZM26.514 89.8746L18.876 90.0927L18.821 93.5836L15.166 93.8027L15.046 101.113H22.476V97.4026H26.169L26.295 93.5836L30.097 93.4577L30.223 89.8746L33.77 89.7487L33.884 89.0406C33.948 88.6516 33.947 87.8697 33.883 87.3036L33.767 86.2737H26.64L26.514 89.8746ZM37.97 89.7646H41.898V93.4747H45.591L45.717 97.2937L49.536 97.4197V101.113H60.676L60.556 93.8027L56.846 93.5836L56.791 90.0927L49.335 89.9727L49.209 86.3827L37.97 86.2667V89.7646Z" fill="#FAF9F9"/>
</svg>
