<svg width="76" height="106" viewBox="0 0 76 106" fill="none" xmlns="http://www.w3.org/2000/svg">
<path fill-rule="evenodd" clip-rule="evenodd" d="M46.111 0.190015C45.925 0.254015 45.838 0.806015 45.838 1.91202V3.53901L49.439 3.41202L49.387 1.99502C49.314 -0.00998473 49.33 0.00901242 47.751 0.0560124C46.999 0.0780124 46.261 0.139015 46.111 0.190015ZM23.019 4.46301C22.955 4.63001 22.932 5.39601 22.968 6.16301L23.034 7.55901H26.525V4.28502L24.831 4.22201C23.537 4.17301 23.109 4.23001 23.019 4.46301ZM34.381 19.997L30.797 20.124L30.672 23.925L26.853 24.051V40.384L23.034 40.51L22.816 44.438L21.293 44.504C18.578 44.621 18.779 44.958 18.779 40.268V36.216L15.396 36.37L15.178 44.438L13.378 44.501C12.387 44.536 11.574 44.635 11.569 44.72C11.565 44.805 11.524 48.557 11.477 53.058C11.431 57.559 11.386 61.315 11.376 61.405C11.367 61.495 10.524 61.568 9.50398 61.568H7.64899V76.626H11.341L11.468 80.226L15.069 80.353V61.568H18.779V57.422H22.706V53.712H26.416V49.566H30.344V45.355C30.344 40.415 30.25 40.619 32.531 40.619H34.194L34.245 38.615C34.308 36.154 34.156 36.354 36.02 36.29C38.402 36.208 38.321 36.125 38.24 38.543L38.17 40.619H42.128V44.765H45.838V49.313L46.488 49.456C46.846 49.535 47.607 49.583 48.18 49.563C48.752 49.544 49.343 49.536 49.493 49.547C49.691 49.561 49.766 50.137 49.766 51.639V53.712H53.476V57.422H57.387L57.513 61.459L61.004 61.484L61.118 80.336H64.587L64.714 76.735L68.315 76.608V72.396C68.315 70.08 68.379 66.7 68.458 64.885L68.6 61.586L64.714 61.459V53.058C64.714 47.709 64.635 44.598 64.496 44.496C64.376 44.408 63.517 44.334 62.586 44.332L60.895 44.329V40.305C60.895 35.726 61.004 35.956 58.936 36.16L57.413 36.31L57.295 44.438H53.367L53.248 36.255H49.548V34.976C49.548 34.273 49.486 33.245 49.41 32.693L49.272 31.689L45.729 31.563L45.602 27.962H41.92L41.801 20.215L38.091 19.997L37.972 11.814H34.5L34.381 19.997ZM53.476 27.526H57.193L57.076 16.506L53.476 16.379V27.526ZM34.49 57.64L33.454 57.686C32.884 57.711 32.025 57.743 31.544 57.757L30.672 57.782L30.547 62.005H26.87L26.744 65.824L23.034 66.042L22.919 80.318L26.744 80.445L26.869 84.7H49.548V80.336H53.263L53.148 66.042L49.495 65.824L49.439 62.114L45.729 61.896L45.604 57.876L42.019 57.75L41.801 54.04L40.107 54.026C38.004 54.009 38.014 54.021 37.937 51.642L37.873 49.684L34.492 49.675L34.49 57.64ZM16.601 80.498C15.173 80.596 15.076 80.718 15.075 82.409C15.074 84.7 15.074 84.7 17.058 84.7H18.779V82.518C18.779 80.388 18.767 80.336 18.288 80.376C18.017 80.398 17.259 80.453 16.601 80.498ZM58.331 80.495L57.404 80.579V84.7H60.895V82.65C60.895 80.466 60.804 80.287 59.732 80.374C59.472 80.395 58.841 80.449 58.331 80.495ZM7.53998 90.483L0.22998 90.602V97.793H11.141V94.083H15.069V90.374H22.706V86.446H7.66599L7.53998 90.483ZM53.476 90.357L57.295 90.483L57.421 94.083H64.823V97.793H75.745L75.625 90.701L68.424 90.483L68.298 86.446H53.476V90.357ZM26.744 94.193L19.106 94.411L19.051 97.902L15.396 98.121L15.276 105.431H22.706V101.721H26.399L26.525 97.902L30.327 97.776L30.453 94.193L34 94.067L34.114 93.359C34.178 92.97 34.177 92.188 34.113 91.622L33.997 90.592H26.87L26.744 94.193ZM38.2 94.083H42.128V97.793H45.821L45.947 101.612L49.766 101.738V105.431H60.906L60.786 98.121L57.076 97.902L57.021 94.411L49.565 94.291L49.439 90.701L38.2 90.585V94.083Z" fill="#FAF9F9"/>
</svg>
