<svg width="62" height="62" viewBox="0 0 62 62" fill="none" xmlns="http://www.w3.org/2000/svg">
<path fill-rule="evenodd" clip-rule="evenodd" d="M22.5235 1.39252V2.7852H19.6777H16.8321V4.17554V5.5659L14.0167 5.59829L11.2012 5.63084L11.167 6.99313L11.1327 8.35543H9.74408H8.35543V9.80855V11.2617H6.96291H5.57039V14.0469V16.8321H4.17771H2.7852V19.6777V22.5235H1.39252H0V31V39.4766H1.39252H2.7852V42.3223V45.1679H4.17771H5.57039V47.9531V50.7383H6.96291H8.35543V52.1914V53.6446H9.74408H11.1327L11.167 55.0069L11.2012 56.3692L12.624 56.4033L14.0469 56.4374V57.8262V59.2148H16.8321H19.6173V60.6075V62H21.1308H22.6446V57.7012V53.4023H18.4669H14.2891V52.0098V50.6173H12.836H11.3829V47.8321V45.0469H9.99022H8.5977V43.7148V42.3829H11.3223H14.0469V43.7754V45.1679H15.4394H16.8321V46.5606V47.9531H19.7383H22.6446V45.0469V42.1406H19.8594H17.0742V40.7481V39.3554H15.6817H14.2891V37.9629V36.5704H12.836H11.3829V29.6075V22.6446H12.836H14.2891V18.4669V14.2891H16.9531H19.6173V15.6211V16.9531H21.0704H22.5235V18.4062V19.8594H23.9766H25.4298V18.4062V16.9531H31H36.5704V18.4062V19.8594H38.0235H39.4766V18.4062V16.9531H40.9298H42.3829V15.6211V14.2891H45.0469H47.711V18.4669V22.6446H49.1641H50.6173V29.6075V36.5704H49.1641H47.711V37.9629V39.3554H46.3183H44.9258V40.7481V42.1406H42.1406H39.3554V43.5938V45.0469H37.9629H36.5704V46.5V47.9531H37.9629H39.3554V54.9766V62H40.8692H42.3829V60.6075V59.2148H45.1679H47.9531V57.8262V56.4374L49.376 56.4033L50.7988 56.3692L50.833 55.0069L50.8673 53.6446H52.2559H53.6446V52.1914V50.7383H55.0371H56.4298V47.9531V45.1679H57.8223H59.2148V42.3223V39.4766H60.6075H62V31V22.5235H60.6075H59.2148V19.6777V16.8321H57.8223H56.4298V14.0469V11.2617H55.0371H53.6446V9.80855V8.35543H52.2559H50.8673L50.833 6.99313L50.7988 5.63084L47.9834 5.59829L45.1679 5.5659V4.17554V2.7852H42.3223H39.4766V1.39252V0H31H22.5235V1.39252Z" fill="#D0C1C1"/>
</svg>
